<?xml version="1.0" encoding="UTF-8" standalone="no"?>
<svg
   xmlns:dc="http://purl.org/dc/elements/1.1/"
   xmlns:cc="http://creativecommons.org/ns#"
   xmlns:rdf="http://www.w3.org/1999/02/22-rdf-syntax-ns#"
   xmlns:svg="http://www.w3.org/2000/svg"
   xmlns="http://www.w3.org/2000/svg"
   xmlns:sodipodi="http://sodipodi.sourceforge.net/DTD/sodipodi-0.dtd"
   xmlns:inkscape="http://www.inkscape.org/namespaces/inkscape"
   version="1.1"
   width="512"
   height="512"
   id="svg5"
   sodipodi:docname="logo.svg"
   inkscape:version="1.0.1 (3bc2e813f5, 2020-09-07)">
  <metadata
     id="metadata11">
    <rdf:RDF>
      <cc:Work
         rdf:about="">
        <dc:format>image/svg+xml</dc:format>
        <dc:type
           rdf:resource="http://purl.org/dc/dcmitype/StillImage" />
        <dc:title></dc:title>
      </cc:Work>
    </rdf:RDF>
  </metadata>
  <defs
     id="defs9" />
  <sodipodi:namedview
     pagecolor="#ffffff"
     bordercolor="#666666"
     borderopacity="1"
     objecttolerance="10"
     gridtolerance="10"
     guidetolerance="10"
     inkscape:pageopacity="0"
     inkscape:pageshadow="2"
     inkscape:window-width="1920"
     inkscape:window-height="1017"
     id="namedview7"
     showgrid="false"
     inkscape:zoom="0.64449836"
     inkscape:cx="41.390739"
     inkscape:cy="219.66668"
     inkscape:window-x="-8"
     inkscape:window-y="-8"
     inkscape:window-maximized="1"
     inkscape:current-layer="layer2" />
  <g
     inkscape:groupmode="layer"
     id="layer1"
     inkscape:label="Layer 1">
    <g
       id="g841"
       transform="matrix(3.7964752,0,0,3.7964752,-196.43682,-123.72892)">
      <path
         id="dp_path001"
         fill="#000000"
         fill-rule="evenodd"
         stroke="#000000"
         stroke-width="1.33333"
         d="m 87.556282,131.36829 h 61.230998 v 7.642 H 87.556282 Z" />
      <path
         id="dp_path002"
         fill="#000000"
         fill-rule="evenodd"
         stroke="none"
         stroke-width="0"
         d="m 117.63641,57.426225 -0.26524,7.59537 -9.5142,-0.332243 -0.78454,22.466306 8.47483,0.295947 -0.27082,7.755273 -8.47483,-0.295948 -1.0777,30.86119 -7.83522,-0.27361 2.39829,-68.678141 z" />
      <path
         id="dp_path003"
         fill="#000000"
         fill-rule="evenodd"
         stroke="none"
         stroke-width="0"
         d="m 127.82472,127.03937 c -7.42182,-0.38896 -10.90226,-5.05751 -10.43333,-14.00523 l 0.67786,-12.93425 7.58958,0.39775 -0.63263,12.07144 c -0.15073,2.87605 0.0725,4.73028 0.66979,5.56267 0.59725,0.8324 1.43913,1.27707 2.52564,1.33401 1.08651,0.057 1.98624,-0.29645 2.69919,-1.06018 0.71294,-0.76374 1.14478,-2.58363 1.29551,-5.45968 l 0.42162,-8.04496 c 0.13063,-2.49258 -0.16499,-4.4948 -0.88685,-6.00665 -0.72187,-1.511852 -1.64636,-2.826037 -2.78146,-3.942974 -1.12711,-1.116518 -2.33746,-2.173312 -3.63105,-3.170379 -1.29359,-0.997068 -2.44512,-2.259064 -3.46258,-3.786407 -0.83113,-1.261227 -1.5059,-2.754588 -2.0243,-4.480084 -0.51841,-1.725496 -0.70727,-3.930402 -0.56659,-6.614718 l 0.3965,-7.565617 c 0.23446,-4.473861 1.27313,-7.784038 3.11599,-9.930531 1.84287,-2.146494 4.61775,-3.122605 8.32467,-2.928334 7.22209,0.378494 10.60034,5.009645 10.13476,13.893453 l -0.58742,11.208618 -7.58958,-0.397753 0.53717,-10.249934 c 0.15073,-2.876053 -0.0246,-4.727767 -0.518,-5.554722 -0.50138,-0.827375 -1.29533,-1.269533 -2.37385,-1.326055 -1.07852,-0.05652 -1.89836,0.30106 -2.44354,1.073586 -0.55316,0.772108 -0.90511,2.596188 -1.05584,5.472241 l -0.29099,5.55238 c -0.12728,2.428667 0.14057,4.349317 0.80355,5.761951 0.66298,1.412634 1.52941,2.611623 2.59931,3.596967 1.07789,0.985763 2.24616,1.928198 3.51282,2.827722 1.26666,0.899525 2.40975,2.016881 3.42927,3.352068 1.02751,1.335606 1.82424,2.947513 2.39818,4.836139 0.57394,1.888626 0.78053,4.366833 0.61975,7.434623 l -0.5422,10.3458 c -0.46558,8.88381 -4.44523,13.12935 -11.93095,12.73704 z" />
    </g>
  </g>
  <g
     inkscape:groupmode="layer"
     id="layer2"
     inkscape:label="Layer 2"
     style="display:none">
    <circle
       style="fill:none;stroke:#fd0000;stroke-width:2.25614"
       id="path836"
       cx="256"
       cy="256"
       r="203.67194" />
  </g>
</svg>
